<?xml version="1.0" encoding="utf-8"?>
<!-- Generator: Adobe Illustrator 21.0.0, SVG Export Plug-In . SVG Version: 6.00 Build 0)  -->
<svg version="1.1" id="Layer_1" xmlns="http://www.w3.org/2000/svg" xmlns:xlink="http://www.w3.org/1999/xlink" x="0px" y="0px"
	 viewBox="0 0 256 509.8" style="enable-background:new 0 0 256 509.8;" xml:space="preserve">
<style type="text/css">
	.st0{fill:#FFFFFF;}
</style>
<g>
	<g>
		<path class="st0" d="M64.4,241.1c-16-1.5-32.1-0.8-48.1-2.4c5.4,5.4,10.7,10.7,16.1,16.1c-0.7-27.4,1.2-54.8,0.6-82.2
			c-5.4,5.4-10.7,10.7-16.1,16.1c19.8,1.6,39.6,0.7,59.5,0.2c8.8-0.2,16-7.2,16.1-16.1c0.2-20.8-0.5-41.6,0.6-62.4
			c0.4-8.9,0.9-17.8,2.1-26.6c-0.4,2.7,0,0.1,0.1-0.4c0.2-1,0.4-2.1,0.6-3.1c0.4-2,0.9-4.1,1.5-6c0.2-0.6,2.1-6,1-3.3
			c0.9-2.1,2-4.1,3.2-6c0.2-0.3,2.1-2.8,1-1.4c-1.1,1.4,0.9-1,1.2-1.2c1.3-1.5,2.6-2.9,4-4.3c2.8-2.9,5.8-5.6,8.9-8.2
			c0.5-0.4,2.4-1.8,0-0.1c0.7-0.5,1.5-1.1,2.2-1.6c1.5-1.1,3-2.1,4.6-3.1c3.1-1.9,6.4-3.6,9.7-5.2c2.7-1.3,0.6-0.3,0,0
			c0.9-0.4,1.7-0.7,2.6-1c1.8-0.7,3.5-1.3,5.3-1.8c4-1.2,8-2.2,12-2.9c1-0.2,2-0.3,3-0.5c2.6-0.4-2.4,0.1,0.3,0
			c2.1-0.1,4.2-0.4,6.3-0.5c4.6-0.3,9.1-0.3,13.7-0.4c10.4-0.2,20.8-0.3,31.2-0.3c5.4,0,10.8,0,16.1,0c2.4,0,4.8,0.1,7.2,0
			c0.7,0,1.3-0.1,2-0.1c3.9-0.1,2.7,1.6-2.8-1.5c-1.9-1.9-3.9-3.9-5.8-5.8c-1.2-3.4-1.6-4.3-1.1-2.7c-0.4-3.2-0.5-3.9-0.4-2.1
			c-0.1,1.2,0,2.6,0,3.9c-0.1,2.5-0.3,5-0.6,7.5c-0.6,6.4-0.6,12.7-0.5,19.2c0.4,16.2,1.9,32.4,1.5,48.6
			c5.4-5.4,10.7-10.7,16.1-16.1c-12.9-0.2-25.8-0.2-38.7-0.3c-14.4-0.1-28.2,0-39.5,10.4c-5.3,4.8-9.3,11.6-10.9,18.6
			c-1.6,7.1-0.6,14.5-0.6,21.6c-0.1,13.4-1.1,26.7-0.5,40.1c0.4,8.7,7.1,16.2,16.1,16.1c12.1-0.1,24.3-0.5,36.4-0.9
			c5.8-0.2,11.6-0.4,17.3-0.5c3.2-0.1,6.4-0.2,9.5-0.2c1.3,0,2.5,0,3.8,0c1.1,0,5.8,0.8,2.1-0.2c-2.4-1.4-4.7-2.8-7.1-4.1
			c0.3,0.3,0.6,0.5,1,0.8c-1.4-2.4-2.8-4.7-4.1-7.1c-1-3.3-0.5,0.8-0.7,2.3c-0.2,1.6-0.4,3.2-0.6,4.8c-0.4,3.4-0.8,6.9-1.3,10.3
			c-0.5,3.7-1.5,11.2-2.3,16.7c-1,7.3-2,14.6-2.9,21.8c-0.4,3.2-0.8,6.4-1.1,9.6c-0.2,1.6-0.2,2.8-0.2,4.3c0,0.4,0.1,0.9,0.1,1.3
			c0,3,0.4,1.8,1.2-3.8c1.9-1.9,3.9-3.9,5.8-5.8c-0.1,0.1,3.8-1.3,2.1-0.9c-1.7,0.4,1.7-0.3,1.7-0.2c-0.3,0.5-3.2,0.2-3.9,0.2
			c-3.1,0.1-6.1,0.2-9.2,0.3c-6.6,0.3-13.2,0.9-19.9,1.3c-5.2,0.3-10.3,0.6-15.5,0.1c-5-0.5-10.4-1.1-15.4,0.3
			c-13.6,3.9-12.8,15.9-12.7,26.8c0.2,27.3,0.5,54.5,0.7,81.8c0.3,33.3,0.5,66.6,0.5,99.9c0,11.2,0,22.5-0.3,33.7
			c-0.1,2.9-0.3,5.8-0.4,8.8c0,0.9-0.3,2.8,0.2-1c0.5-3.5-0.5,0,0.9-3.3c0.3-0.6,0.5-1.2,0.8-1.9c3.2-2.4,6.3-4.9,9.5-7.3
			c-0.1,0-0.1,0-0.2,0c-0.7,0.3,5.6-0.5,3.4-0.5c-0.7,0-1.5,0.1-2.2,0.1c-27.8,1.1-55.9-0.1-83.8-0.5c-0.8,0-1.6,0-2.4,0
			c5.4,5.4,10.7,10.7,16.1,16.1c-2.4-29.9-0.8-59.9,0-89.8c0.8-31.3,0-62.5-0.4-93.8c-0.2-18.5-0.2-37,0.4-55.5
			c0.3-8.4-7.6-16.5-16.1-16.1c-9,0.4-15.8,7.1-16.1,16.1c-1,31.7-0.2,63.4,0.3,95.1c0.5,31.4-0.7,62.8-1.3,94.2
			c-0.3,16.6-0.3,33.3,1.1,49.9c0.7,8.8,6.8,16,16.1,16.1c24,0.4,47.9,0.7,71.9,0.7c11.9,0,29.1,2.2,33.2-12.6
			c1.6-5.8,1.1-12.9,1.2-18.8c1-56.1-0.1-112.3-0.6-168.4c-0.1-12.6-0.2-25.3-0.3-37.9c0-3.8-0.1-7.5-0.1-11.3c0-1,0-2,0-3
			c-0.1-2.3,1.1-2.3-0.5,3c-1.4,2.4-2.8,4.7-4.1,7.1c-0.5,0.5-8.2,5.5-8.9,4c0,0.1,1.2,0,1.3,0c1.2,0.1,2.3,0.1,3.5,0.1
			c2.5,0.2,5.1,0.5,7.6,0.7c6.5,0.4,13.3-0.4,19.8-0.9c7.1-0.5,14.2-0.9,21.3-1.1c10.3-0.3,21.7-2.6,25-14c1.1-3.9,0.7-7.6,0.9-11.6
			c0.2-4.8,1.1-9.6,1.7-14.3c0.6-4.9,0.8-6.2,1.4-10.5c0.6-4.6,1.3-9.1,1.9-13.7c1.4-10,3.7-20.5,3.8-30.6c0.1-7-3-13.7-9.3-17.4
			c-5.2-3.1-11.6-2.6-17.4-2.5c-21.4,0.3-42.8,1.5-64.2,1.6c5.4,5.4,10.7,10.7,16.1,16.1c-0.5-11.5,0.2-23,0.4-34.5
			c0.1-5.9,0.1-11.7-0.1-17.6c0-0.8,0.4-4.1-0.3-1.1c0.2-1,0.5-2,0.8-2.9c-1.1,2.6,1-1.2,0.1,0.2c-0.9,1.3,1.7-1.7,1.8-1.8
			c-1.2,1.1-0.6,0.4,0.4-0.1c3.1-1.8-1-0.2,0.8-0.3c0.6-0.1,4-0.8,0.7-0.4c1-0.1,2-0.1,3-0.2c5.4-0.1,10.7,0.1,16.1,0.2
			c11.4,0.1,22.9,0.1,34.3,0.3c8.9,0.1,15.9-7.5,16.1-16.1c0.6-23.7-2.6-47.3-0.7-71c0.4-4.8,0.8-10-0.5-14.7
			c-2.6-10-11.8-14-21.4-13.7c-13.1,0.4-26.3,0-39.4,0.2c-27.4,0.2-54.1,0.4-79.2,13C91.1,24.8,70,45.7,64.7,71.7
			c-3.2,15.7-3.8,32.3-4.2,48.2c-0.5,17.6-0.1,35.3-0.2,52.9c5.4-5.4,10.7-10.7,16.1-16.1c-19.9,0.5-39.6,1.5-59.5-0.2
			c-8.6-0.7-16.3,8-16.1,16.1c0.6,27.4-1.4,54.8-0.6,82.2c0.2,9.4,7.2,15.2,16.1,16.1c16,1.6,32.1,0.9,48.1,2.4
			c8.4,0.8,16.5-8,16.1-16.1C80.1,247.8,73.4,242,64.4,241.1L64.4,241.1z"/>
	</g>
</g>
</svg>
