<?xml version="1.0" encoding="utf-8"?>
<!-- Generator: Adobe Illustrator 21.0.0, SVG Export Plug-In . SVG Version: 6.00 Build 0)  -->
<svg version="1.1" id="Layer_1" xmlns="http://www.w3.org/2000/svg" xmlns:xlink="http://www.w3.org/1999/xlink" x="0px" y="0px"
	 viewBox="0 0 513.2 513.1" style="enable-background:new 0 0 513.2 513.1;" xml:space="preserve">
<g>
	<g>
		<path d="M131.1,474c-3.8,0-7.6-0.1-11.4-0.3c-1.6-0.1-3.1-0.2-4.7-0.4c-0.9-0.1-1.7-0.2-2.6-0.3c-2.4-0.2,4,0.7,0,0
			c-6.1-1-12-2.4-17.8-4.5c-0.7-0.3-1.4-0.6-2.1-0.8c-2.1-0.7,2.8,1.4,0.9,0.4c-1.1-0.6-2.4-1.1-3.5-1.7c-2.8-1.4-5.5-3-8.1-4.8
			c-1.1-0.7-2.1-1.5-3.2-2.3c3.6,2.5-0.2-0.2-1.1-1c-2.4-2-4.6-4.2-6.8-6.5c-2.3-2.4-4.4-4.9-6.5-7.5c-0.2-0.2-1.5-2-0.3-0.4
			c1.3,1.7-0.4-0.5-0.7-1c-1.2-1.7-2.4-3.3-3.5-5c-4.6-6.7-8.9-13.7-12.4-21c0,0-1.1-2.5-0.5-1.1c0.7,1.6-0.6-1.6-0.7-1.9
			c-0.7-1.8-1.3-3.7-1.9-5.6c-1.4-4.6-2.6-9.3-3.5-14c-0.4-2-0.7-3.9-1-5.9c-0.6-3.4-0.2-1.5-0.1-0.7c-0.2-1.1-0.3-2.3-0.4-3.4
			c-0.5-4.6-0.9-9.2-1.1-13.7c-1-18.6-0.7-37.3-1-55.9c-0.3-14.4-0.7-28.9-1.1-43.3c-0.9-28.6-1.9-57.1-2.4-85.7
			c-0.3-14.4-0.6-28.8-0.4-43.2c0.1-5.2,0.3-10.5,0.6-15.7c0.2-2.9,0.4-5.8,0.7-8.7c0.2-1.6,0.3-3.2,0.5-4.8
			c0.1-0.8,0.2-1.6,0.3-2.4c0.4-3.2-0.4,2.2,0,0.1c1.2-6.5,2.2-13,3.8-19.4c0.8-3.3,1.8-6.5,2.9-9.7c0.5-1.4,1-2.7,1.5-4.1
			c0.2-0.5,1.3-3,0.3-0.9c-1.1,2.3,0.6-1.3,0.7-1.4c1.3-2.7,2.7-5.3,4.3-7.9c0.7-1.2,1.5-2.3,2.3-3.4c1.7-2.4-0.2,0.3-0.5,0.6
			c0.8-0.8,1.5-1.7,2.2-2.6c2.4-2.6,5.1-4.9,7.9-7.1c2.6-2.2,1.4-1.1,0.8-0.6c0.9-0.7,1.8-1.3,2.8-2c2-1.4,4.1-2.8,6.2-4
			c3.4-2,6.8-3.7,10.3-5.5c0.5-0.3,2.9-1.3,0.1-0.1c0.9-0.4,1.8-0.7,2.7-1.1c1.7-0.7,3.5-1.3,5.3-1.9c3.3-1.1,6.7-2,10.1-2.8
			c1.4-0.3,8.3-2.6,9.4-1.7c-0.1,0-4.2,0.5-1.1,0.2c0.7-0.1,1.4-0.2,2.1-0.2c1.2-0.1,2.3-0.2,3.5-0.3c2.5-0.2,5-0.3,7.4-0.4
			c8.3-0.2,16.7-0.1,25-0.2c33.9-0.2,67.8-0.4,101.7-0.7c34.7-0.2,69.3-0.5,104-0.7c14.9-0.1,29.8-0.4,44.7,0.9
			c1.8,0.2,3.7,0.4,5.5,0.6c0.7,0.1,3.2,0.4-0.2-0.1c0.9,0.1,1.9,0.3,2.8,0.4c3.7,0.6,7.4,1.3,11.1,2.2c3.4,0.8,6.8,1.8,10.2,2.9
			c1.6,0.5,3.1,1.2,4.6,1.7c-3-1-0.7-0.3,0,0c1.1,0.5,2.1,1,3.2,1.5c3.2,1.6,6.2,3.4,9.2,5.3c0.8,0.5,1.5,1.1,2.3,1.6
			c-2.4-1.6-0.4-0.4,0.1,0.1c1.7,1.4,3.3,2.9,4.9,4.4c6,5.9,11.6,12.5,16.9,19.1c0.7,0.9,3.8,4.8,1.5,1.8c0.9,1.2,1.9,2.5,2.8,3.7
			c1.5,2.2,3,4.4,4.3,6.7c0.6,1,1.1,2,1.6,3.1c0.3,0.6,1.8,3.9,0.5,1c-1.3-3,0.2,0.6,0.4,1.3c0.3,1.1,0.6,2.1,0.9,3.2
			c0.2,0.8,0.4,1.7,0.5,2.5c0.6,3-0.1,0.7-0.1-1.1c-0.1,2.2,0.5,4.6,0.6,6.8c0.3,5.1,0.5,10.2,0.9,15.4c0.6,10.4,0.5,20.8,0.3,31.2
			c-0.5,27.2-1.9,54.5-2.8,81.7c-1,28.1-0.1,56,1.1,84.1c0.7,16,1.5,32.1,1.5,48.1c0,7.1-0.1,14.2-0.6,21.3c-0.2,3.5-0.5,7-0.8,10.4
			c-0.2,1.5-0.4,3-0.5,4.4c-0.2,2.4,0.5-3,0.1-0.6c-0.2,1-0.3,2.1-0.5,3.1c-1,6.4-2.5,12.7-4.3,18.9c-0.8,2.6-1.7,5.3-2.7,7.9
			c-0.3,0.7-0.6,1.5-0.9,2.2c1.3-3.6,0.7-1.5,0.3-0.7c-0.7,1.6-1.5,3.2-2.3,4.8c-2.8,5.6-6.4,10.5-9.8,15.8c2-3,0.4-0.5-0.3,0.2
			c-0.6,0.7-1.3,1.4-1.9,2.1c-1.4,1.4-2.9,2.6-4.3,4c-1.9,1.7,3.6-2.5,0.3-0.3c-0.7,0.5-1.5,1-2.2,1.5c-1.9,1.3-3.9,2.4-5.9,3.5
			c-1.9,1-3.7,1.9-5.7,2.8c-0.4,0.2-0.8,0.3-1.2,0.5c-2.4,1.1,1.3-0.6,1.5-0.6c-1.2,0.2-2.7,1.1-3.8,1.5c-9.8,3.7-20,6.1-30.2,8
			c-2.7,0.5-5.4,1-8.1,1.4c-1.5,0.2-3,0.4-4.4,0.7c-1.9,0.3,1.6-0.2,1.6-0.2c-1,0.3-2.3,0.3-3.4,0.4c-6.1,0.7-12.2,1.3-18.3,1.8
			c-13.3,1-26.6,1.5-39.9,1.7c-55.5,0.8-110.9-3.4-166.3-5.3C154.2,474.2,142.7,474,131.1,474c-8.6,0-16.9,7.6-16.5,16.5
			c0.4,8.9,7.2,16.5,16.5,16.5c55.4,0,110.7,4.9,166.1,5.9c28.1,0.5,56.3,0.3,84.2-2.5c24.7-2.5,49.4-6.5,72.2-16.6
			c51.3-22.8,59.9-84.9,59.4-134.8c-0.3-33.5-3.5-67-3.3-100.6c0.1-26.4,1.7-52.7,2.6-79.1c0.9-23.9,1.2-47.7,0-71.6
			c-0.5-10.4-1.4-20.7-5.4-30.3c-5.4-12.8-14.4-23.5-23.5-33.9c-6.2-7.1-12.4-13.8-19.8-19.6c-7.4-5.7-15.4-9.9-24.1-13.4
			c-15-6.1-31.3-8.6-47.4-9.7c-15.9-1.1-31.9-0.7-47.9-0.6c-18.9,0.1-37.7,0.2-56.6,0.4C254.3,0.8,220.9,1,187.6,1.2
			c-19.5,0.1-39,0.3-58.4,0.4C116,1.7,103.1,2.4,90.2,5.3C73.7,9.1,57.6,16.4,44,26.5c-8,6-15,12.1-20.9,20.1
			c-4.5,6-7.6,12.6-10.4,19.5C2.4,90.6,0.2,118.5,0,144.7c-0.4,60.5,3.2,120.9,4.2,181.3c0.6,39.3-1.4,81,19.3,116.2
			c15.2,25.9,34.9,48.6,64,58.6c13.9,4.8,29,6.1,43.6,6.1c8.6,0,16.9-7.6,16.5-16.5C147.2,481.5,140.4,474,131.1,474z"/>
	</g>
</g>
<g>
	<g>
		<path d="M364,92.8c-7.5,11.1-6.7,27.4,0.6,38.5c9,13.5,24.9,19.2,40,12.8c13.1-5.5,22.4-20.2,21.3-34.5
			c-1.2-15.7-11.7-26.4-25.2-33.1c-9.8-4.9-23.2-3-28.7,7.5c-5,9.5-3,23.5,7.5,28.7c2.3,1.2,4.5,2.5,6.8,3.8
			c2.3,1.2-3.8-1.9-0.4-0.2c1.2,1.4,1.3,1.4,0.1,0c-1-1-1.6-2.1-1.8-3.6c1.2,3.6-0.2-3.9-0.1-1.3c0.1,2.5,1.2-4.8,0-1.3
			c1.3-2.8,1.6-3.6,0.8-2.2c-0.8,1.4-0.3,0.8,1.5-1.7c-0.1,0-4.2,2.8-0.6,0.8c0.8-0.4,5.7-2.3,2.9-1.7c1.1-0.2,2.2-0.3,3.3-0.5
			c3.4,0.7,4.4,0.8,2.8,0.3c-1.6-0.5-0.7-0.1,2.5,1c0.8,0.7,1.7,1.3,2.5,2c-2.8-2.8,2.4,4.3,0.4,0.8c-1.7-3.1,1.3,3.8,0.5,1.3
			c-1.1-3.3,0,0.1,0,1.6c-0.1-4.2-1.3,5-0.3,1c0.9-3.6-2.4,4.2-0.2,0.9c6.2-9.1,2-23.7-7.5-28.7C382.1,79.7,370.6,83.1,364,92.8
			L364,92.8z"/>
	</g>
</g>
<g>
	<g>
		<path d="M269.3,140.8c-50.5-11.5-104.6,7.8-132.9,52c-13.3,20.8-20.2,46-20.3,70.6c-0.1,27.9,9.9,52.7,25.7,75.3
			c8,11.4,16.3,23.2,27.1,32.2c11.1,9.1,23.8,15.5,37.6,19.4c26.5,7.5,56.4,8.2,83.4,3c25.6-4.9,50.1-17.9,67.3-37.6
			c18.8-21.6,27.5-47.9,27.5-76.4c0.1-32.2-6.1-66-21.8-94.4c-13.9-25.2-37.5-47.3-66.4-53.4c-8.4-1.8-18.2,2.5-20.3,11.5
			c-1.9,8.3,2.5,18.4,11.5,20.3c2.4,0.5,4.8,1.1,7.1,1.8c1.4,0.4,2.8,1,4.1,1.5c-2.8-1-0.4-0.2,0.1,0.1c2.2,1.1,4.4,2.2,6.6,3.5
			c1.3,0.8,2.6,1.6,3.8,2.4c0.2,0.1,4.1,3,1.6,1c9.3,7.1,15,14.1,20.1,22.3c6.8,10.9,10,18.7,13.5,30.9c1.6,5.7,3,11.5,4.1,17.3
			c0.5,2.9,1,5.9,1.4,8.8c-0.1-0.8-0.3-2.5,0.1,0.9c0.2,2.1,0.4,4.2,0.6,6.2c0.5,6,0.9,12.1,0.9,18.2c0,3.1-0.1,6.1-0.2,9.2
			c-0.1,1.5-0.2,3-0.3,4.6c-0.2,3.4,0.2-0.2-0.3,2.9c-0.9,5.4-2.2,10.7-4.1,15.9c-0.1,0.3-2,4.9-0.6,1.7c-0.4,0.9-0.8,1.8-1.3,2.7
			c-1.3,2.7-2.7,5.3-4.3,7.9c-1.3,2.1-2.7,4.1-4.1,6.2c-2.8,3.9,2.1-2.3-1.1,1.3c-0.7,0.7-1.3,1.5-1.9,2.2c-3.6,4-7.5,7.7-11.6,11.1
			c-3.5,3,1.6-1-0.7,0.5c-1,0.7-2,1.4-2.9,2.1c-2,1.3-4,2.6-6.1,3.8c-2,1.2-4.1,2.3-6.3,3.3c-3.3,1.6-3.5,1.7-7.6,3.1
			c-5.6,1.9-11.3,3.5-17.1,4.6c-1.2,0.2-2.3,0.4-3.5,0.6c-5.5,1,3-0.2-2.6,0.4c-3.5,0.4-7,0.7-10.6,0.8c-5.9,0.3-11.8,0.2-17.7-0.1
			c-2.9-0.1-5.9-0.4-8.8-0.6c-1.1-0.1-2.1-0.2-3.2-0.3c-1.1-0.1-2.1-0.2-3.2-0.4c1.5,0.2,1.6,0.2,0.4,0c-5.1-0.9-10.1-1.7-15.1-3.1
			c-2.6-0.7-5.2-1.5-7.7-2.4c-1.5-0.5-3.1-1.1-4.5-1.7c2.7,1.2-1.9-1-2-1c-2.4-1.2-4.8-2.6-7.1-4c-1.4-0.9-2.8-1.8-4.1-2.8
			c0.6,0.5,1.9,1.6-0.6-0.5c-4.7-4.2-9-8.8-12.9-13.7c-0.9-1.2-1.8-2.3-3.7-5c-1.7-2.4-3.5-4.8-5.1-7.2c-3.8-5.5-7.4-11-10.6-16.9
			c-1.4-2.6-2.7-5.2-3.8-7.9c1.1,2.8,0.2,0.3,0-0.2c-0.5-1.4-1-2.8-1.5-4.2c-1.7-5.2-2.9-10.5-3.7-15.9c0.1,0.7,0.3,3.2,0-0.1
			c-0.1-1.5-0.3-3-0.4-4.5c-0.2-2.5-0.2-5-0.2-7.5c0-2.5,0.1-5,0.3-7.5c0.1-1,0.1-2,0.2-3c0.1-1,0.2-2,0.3-3
			c-0.2,1.6-0.3,1.9-0.1,0.7c0.9-5,1.8-9.8,3.2-14.7c0.7-2.4,1.4-4.8,2.3-7.1c0.4-1.2,0.9-2.3,1.3-3.5c1.3-3.6-0.9,1.7,0.6-1.5
			c2.5-5.3,5.2-10.5,8.5-15.4c0.7-1,1.4-2,2.1-3c0.4-0.6,0.8-1.2,1.3-1.8c-1.1,1.4-1.1,1.4,0.1-0.1c1.8-2.1,3.5-4.1,5.4-6.1
			c2-2,4-4,6.1-5.8c1.1-1,2.3-2,3.5-2.9c-2.5,2,1.3-0.9,1.5-1.1c4.9-3.5,10.1-6.5,15.5-9c0.9-0.4,1.8-0.8,2.7-1.2
			c-3.3,1.4,2.4-0.9,2.9-1.1c2.6-0.9,5.1-1.7,7.8-2.5c2.6-0.7,5.2-1.3,7.9-1.9c1.4-0.3,2.9-0.5,4.4-0.8c4.8-0.8-3.3,0.2,1.5-0.2
			c5.9-0.5,11.8-0.7,17.7-0.4c1,0.1,2,0.1,2.9,0.2c0.7,0.1,6.8,0.9,2.9,0.3c2.9,0.5,5.8,1,8.7,1.7c8.4,1.9,18.3-2.6,20.3-11.5
			C282.7,152.7,278.3,142.9,269.3,140.8L269.3,140.8z"/>
	</g>
</g>
</svg>
