<?xml version="1.0" encoding="utf-8"?>
<!-- Generator: Adobe Illustrator 21.0.0, SVG Export Plug-In . SVG Version: 6.00 Build 0)  -->
<svg version="1.1" id="Layer_1" xmlns="http://www.w3.org/2000/svg" xmlns:xlink="http://www.w3.org/1999/xlink" x="0px" y="0px"
	 viewBox="0 0 345.3 448.7" style="enable-background:new 0 0 345.3 448.7;" xml:space="preserve">
<style type="text/css">
	.st0{fill:#FFFFFF;}
</style>
<g>
	<path class="st0" d="M184.6,106.9c-14.2-0.5-26.4,2.2-40.1,5.9c-9.1,2.5-26.3,14.2-30.6,24.8c-9.3,23-6.6,47.5,7,68.3
		c7.6,11.6,32,20.6,41.5,21.9c24.6,3.3,32.6,2.6,53.4-10.9c10.6-6.9,22.8-23.8,22.7-40.4c-0.1-16-1.5-29-8.7-43.3
		S197.5,107.4,184.6,106.9z"/>
</g>
<g>
	<g>
		<path class="st0" d="M325.2,80C311,60,295.4,42.8,274.4,29.7c-18.2-11.3-38.8-19.3-59.7-24c-18.2-4.1-37.6-6.8-56.3-5.4
			C138.7,1.9,120,7.5,102,15.6C67.2,31.3,34.4,58.5,16.5,92.7c-21,40.1-19.9,90.8-7.9,133.5c11.4,40.6,33.3,77.8,59.9,110.3
			c15.5,18.9,31.8,37.3,48.2,55.5c9.9,11,20,21.9,30.4,32.3c8.9,8.9,19.9,21.4,32.6,24c14.6,3,27.1-8.4,37.5-17
			c8.2-6.8,15.7-14.3,22.7-22.2c15.2-17.2,28.3-36.2,41.1-55.2c13.3-19.9,26-39.8,35.5-61.8c9.6-22,17-44.8,21.8-68.3
			c4.5-22.5,7.7-46.3,6.9-69.2c-0.7-18.3-4.9-37.1-10.9-54.3C331.9,93.2,329.3,86,325.2,80c-4.6-6.7-13.2-9.7-20.5-5.4
			c-6.6,3.9-10,13.8-5.4,20.5c1.5,2.2,2.6,4.6,3.8,6.9c1.2,2.3-0.1-0.2-0.2-0.6c0.4,0.9,0.7,1.8,1.1,2.7c0.8,2.1,1.6,4.2,2.3,6.4
			c2.6,7.8,4.6,15.8,6.3,23.9c0.8,4,1.5,8,2.1,12c-0.5-3.5,0.2,2,0.3,2.9c0.2,1.9,0.3,3.8,0.4,5.7c0.3,10.3-0.4,20.8-1.4,31.1
			c-3.9,41.3-17.2,84.8-38.6,121.3c-10.9,18.7-23.4,36.7-35.9,54.3c-11.4,15.9-24,31.4-39.5,45.1c-3.7,3.3-6.9,5.8-10,8.1
			c-1.8,1.3-3.7,2.7-5.6,3.8c-5,2.7-1,0.6-1.1,0.4c1.5-0.5,2.8-0.4,4,0.3c-0.4-0.3-0.9-0.5-1.3-0.8c-0.9-0.6-1.8-1.3-2.7-1.9
			c-1.2-0.8-1-1.8,1.4,1.1c-0.5-0.6-1.4-1.1-2-1.6c-1.9-1.6-3.8-3.3-5.6-5c-9.2-8.6-17.9-17.8-26.5-27
			c-18.1-19.4-35.6-39.4-52.8-59.7c-19.2-22.6-36-47-48.7-74.9c-7.4-16.3-13.6-37.1-16.8-56.5c-0.2-1.4-0.4-2.8-0.7-5.9
			c-0.2-2.2-0.4-4.4-0.6-6.6c-0.4-5.6-0.5-11.1-0.4-16.7c0.2-11.1,1.2-21.2,3.5-31.8c1-4.6,2.2-9.1,3.8-13.5
			c0.3-0.8,0.6-1.6,0.9-2.4c0,0.1,1.6-3.9,0.7-1.8c-0.9,2,0.9-1.9,0.8-1.8c0.6-1.2,1.1-2.4,1.7-3.6c1.7-3.4,3.6-6.7,5.7-9.9
			c1.1-1.7,2.2-3.4,3.4-5.1c0.5-0.8,1.1-1.5,1.6-2.2c0.4-0.5,2.6-3.4,1-1.4c5.5-6.8,11.4-13.2,17.9-19.1c3.2-2.9,6.5-5.7,9.9-8.4
			c2.2-1.7-2.8,2,1-0.8c0.8-0.6,1.6-1.2,2.3-1.7c2-1.4,4-2.8,6-4.1c7.4-5,15.2-9.4,23.3-13.2c1.9-0.9,3.9-1.8,5.9-2.7
			c-2.3,1,0,0,0.4-0.1c1.1-0.4,2.2-0.9,3.3-1.3c4.1-1.6,8.4-3,12.6-4.2c3.9-1.1,7.9-2.1,12-2.9c1.8-0.3,3.5-0.6,5.3-0.9
			c4.2-0.7-1.9,0,0.6-0.1c1.3-0.1,2.6-0.3,3.9-0.4c8.1-0.7,16.2-0.4,24.3,0.3c1.9,0.2,3.7,0.3,5.6,0.5c-0.2,0,4.4,0.5,2.2,0.3
			c-2.2-0.3,2.5,0.4,2.3,0.3c4.6,0.7,9.2,1.6,13.8,2.6c9.3,2.1,18.5,4.8,27.4,8.2c15.8,6,34.5,16.9,47.2,29.7
			c7.5,7.5,12.7,14.4,18.6,22.8c4.7,6.6,13.1,9.7,20.5,5.4C326.3,96.7,329.9,86.6,325.2,80z"/>
	</g>
</g>
</svg>
