<?xml version="1.0" encoding="utf-8"?>
<!-- Generator: Adobe Illustrator 21.0.0, SVG Export Plug-In . SVG Version: 6.00 Build 0)  -->
<svg version="1.1" id="Layer_1" xmlns="http://www.w3.org/2000/svg" xmlns:xlink="http://www.w3.org/1999/xlink" x="0px" y="0px"
	 viewBox="0 0 562.7 443.9" style="enable-background:new 0 0 562.7 443.9;" xml:space="preserve">
<style type="text/css">
	.st0{fill:#FFFFFF;}
</style>
<g>
	<g>
		<path class="st0" d="M262,401.7c-65,0-130,0-195,0c-3.7,0-7.4,0.1-11.1,0c-1.6,0-3.2,0-4.7-0.2c2.8,0.4-2-0.6-2.1-0.6
			c2.3,0.8-1.9-1.1-2.1-1.2c2.5,1.8-1-1.2-1.2-1.4c-2.6-2.6,0.6,1.7-1.2-1.6c-0.5-0.9-1-1.7-1.5-2.6c-0.8-1.6-0.9-1.8-0.3-0.6
			c-0.9-2.4-1.6-4.9-2-7.5c0.5,3.2-0.3-3.2-0.3-3c-0.2-2-0.4-3.9-0.6-5.9c-0.8-8.5-1.6-17.1-2.3-25.7c-2.8-32.2-4.9-64.5-6.3-96.8
			c-2.6-64-1.9-128.1,4.4-191.9c0.3-3.5,0.7-7.1,1.1-10.6c0.6-5.1-0.6,2.7,0.3-2.3c0.3-1.6,0.5-3.1,0.9-4.7c0.3-1.5,0.7-3,1.1-4.5
			c0,0,1.6-4.8,0.5-2.1c0.6-1.4,1.4-2.6,2-3.9c1-1.5,1.1-1.6,0.2-0.5c0.6-0.7,1.3-1.5,2-2.1c0.4-0.3,0.7-0.6,1.1-1
			c-1.1,0.9-1,0.9,0.4,0c4.3-1.2-2.9,0.3,1.4-0.6c0.4-0.1,4.8-1,1.4-0.5c1.4-0.2,2.8-0.2,4.2-0.2c2.4,0,4.8,0.2,7.2,0.4
			c-3.2-0.3,1.5,0.3,1.8,0.3c1.9,0.3,3.8,0.7,5.7,1.1c31.7,6.2,63.5,6.3,95.7,4.5c32-1.8,63.8-3.2,95.9-2.2
			c32.3,1.1,64.6,2.4,96.9,3.5c32.3,1.2,64.6,2.4,96.9,3.5c15.8,0.6,31.6,1.2,47.4,1.7c5.7,0.2,11.2,0.3,16.9-0.3
			c2.5-0.3,5-0.6,7.6-0.7c1.2-0.1,2.5,0,3.7,0c2.8-0.2-2-1.1,0.6,0c3.3,1.4-2.4-2.1,0.3,0c-0.7-0.6-3.7-4.6-1.6-1.2
			c0.8,1.3,1.7,2.5,2.4,3.8c0.1,0.2,2,4.4,0.9,1.7c1.2,3,0.3-1.4,0.4,2.7c0.1,2,0.2,3.9,0.3,5.9c0.2,4.5,0.4,8.9,0.5,13.4
			c0.5,14.4,0.8,28.8,0.8,43.2c0,26.2-0.9,52.5-2.4,78.7c-2.9,50.4-7.7,100.7-9.6,151.1c-0.5,14.1-0.9,28.2-1,42.3
			c-0.1,6.2-0.3,12.5,0.1,18.7c0.3,5.3,0.7,10.5,0.2,15.8c0.3-3.6,0.2-1.5-0.1-0.5c0,0.1-0.1,0.3-0.1,0.4c0.5-2.1,1.8-3.8,3.7-5.1
			c0.4-0.1,0.8-0.3,1.2-0.4c-1.7,0.4-1.7,0.4,0,0.1c-1.4,0.1-2.7,0-4.1,0c-7.6-0.3-15.2-0.5-22.9-0.4c-14.5,0.2-29.1,1-43.6,1.5
			c-15.2,0.6-30.3,1-45.5,0.2c-13.2-0.7-23-2.7-36.1-5c-24.8-4.3-50.1-5.5-75.2-6.3C285.5,401.9,273.8,401.7,262,401.7
			c-7.8,0-15.4,6.9-15,15c0.4,8.1,6.6,15,15,15c25.9,0,51.8,0.7,77.6,2.8c6.2,0.5,12.4,1.2,18.6,2c-2.6-0.3,0.2,0,1.3,0.2
			c1.3,0.2,2.5,0.4,3.7,0.6c2.7,0.4,5.4,1,8,1.5c15.5,3.2,31.3,4.7,47.1,5.1c30.9,0.7,61.6-2.7,92.5-2.1c7.3,0.1,15.2,1.4,22.3-1.1
			c7.9-2.8,14.1-8.8,16-17.1c2.6-11.7,0.4-24.9,0.5-36.9c0.4-54.8,4.7-109.3,8.6-164c4-56.4,5.8-112.8,3.2-169.4
			c-0.4-8.9-1.2-17.2-6-25c-4.2-6.9-8.9-12.5-16.7-15.2c-11.2-3.9-23.4-0.1-34.8-0.5c-33.6-1.2-67.2-2.5-100.8-3.7
			c-33.6-1.2-67.2-2.5-100.8-3.7c-33.8-1.2-67.6-3.1-101.4-1.5c-32.9,1.5-66,4.9-98.9,2.4c-28-2.1-63.9-17.8-84.3,10.8
			C8.8,29.1,7.6,45.1,6.1,59.5c-1.7,16.8-3,33.6-4,50.4c-1.9,33.6-2.5,67.3-2,100.9c0.5,34,2.1,67.9,4.5,101.8
			c1.2,16.8,2.5,33.6,4,50.4c1.4,16.1,1.2,33.6,9.6,48c4,6.7,9.8,13,16.9,16.4c7.5,3.5,15.5,4.3,23.7,4.3c16.9,0.1,33.8,0,50.8,0
			c34.2,0,68.3,0,102.5,0c16.6,0,33.2,0,49.8,0c7.8,0,15.4-6.9,15-15C276.6,408.6,270.4,401.7,262,401.7z"/>
	</g>
</g>
<g>
	<g>
		<path class="st0" d="M28.4,36C50,44.3,70.7,60.6,88.5,77.1c14,13.1,27.3,27,40.9,40.4c12.1,11.9,24.4,23.8,36.4,35.8
			c13.1,13.1,25.6,26.3,41.8,35.9c9.7,5.8,20,10.1,30.3,14.7c7.5,3.4,14.6,7.7,21.7,11.9c7.3,4.4,14.6,8.9,22,13.1
			c2.1,1.2,4.2,2.4,6.4,3.4c7.7,3.5,15.3,2.6,23-0.9c11.5-5.2,22.5-12.2,33.1-19c11.9-7.6,23.3-15.9,33.9-25.3
			c6-5.3,11.6-10.7,17.9-15.7c1.5-1.2,3-2.4,4.5-3.6c3.2-2.5-2.5,1.9,0.8-0.6c0.7-0.5,1.3-1,2-1.5c3.8-2.9,7.7-5.8,11.6-8.7
			c7.7-5.6,15.8-10.3,23.9-15.5c13.6-8.8,26.3-18.9,38.6-29.4C500.9,92,525,71.4,543.7,46.3c4.8-6.5,1.1-16.8-5.4-20.5
			c-7.7-4.5-15.7-1.1-20.5,5.4c-15.1,20.3-36.8,38.1-56.3,55c-9.9,8.6-19.4,16.6-29.9,24c-7.9,5.6-16.4,10.2-24.4,15.6
			c-14.1,9.6-27.9,20-40.8,31.2c-7.4,6.3-14.7,13.6-21.7,18.8c-10.2,7.6-21.1,14.3-32.1,20.6c-4.7,2.7-11.1,6.3-14.9,8.3
			c-3.7,2,0.9,0.2,2.4,0.5c-1.2-0.3-1.2-1.8,2.5,1.1c-1-0.7-2.4-1.2-3.5-1.8c-7-3.8-13.8-8.1-20.7-12.3c-7.3-4.4-14.7-8.8-22.3-12.7
			c-9-4.5-18.4-8-27.3-12.8c-10.1-5.4-17-10.2-24.2-16.9c-5.2-4.9-10-10.2-15.1-15.3c-11.6-11.7-23.4-23.1-35.1-34.6
			c-35.9-35.2-70-74.7-118.2-93C29,4.3,19.6,10.2,17.9,17.6C15.9,26.1,20.5,33.1,28.4,36L28.4,36z"/>
	</g>
</g>
</svg>
