<?xml version="1.0" encoding="utf-8"?>
<!-- Generator: Adobe Illustrator 19.0.0, SVG Export Plug-In . SVG Version: 6.00 Build 0)  -->
<svg version="1.1" preserveAspectRatio="none" id="Layer_1" xmlns="http://www.w3.org/2000/svg" xmlns:xlink="http://www.w3.org/1999/xlink" x="0px" y="0px"
	 viewBox="138 121.4 1300.7 527.6" style="enable-background:new 138 121.4 1300.7 527.6;" xml:space="preserve">
<style type="text/css">
	.st0{fill:#FFFFFF;}
</style>
<g>
	<path class="st0" d="M145.3,424.5c1.2,56.6,5.4,113.6-5.5,169.7c-1.7,8.5-4.5,36.6,4.8,42.2c16.2,9.8,13.7,7,22.6,8.1
		c76.8,9.7,147.4,1.1,225.4,0c312.9-4.3,636.5,14.6,948.4-3.5c29-1.7,66.4,16.5,84.2,0.6c14.6-13,11.2-52.4,10-68.8
		c-10-135.9,13.7-258-1.8-417.8c-0.7-7.4-0.3-15.4-6.4-21.6c-9.7-9.7-29.4-10.9-46.4-11c-40.9-0.4-81.9-1.5-122.8-0.4
		c-356.9,9.8-697-5.9-1066.9,2c-4.9,0.1-26.2-3.2-33.6,7.9c-12.5,18.7,2.3,54.2,1.2,61C158.4,192.7,143.3,329.7,145.3,424.5z"/>
</g>
</svg>
