<?xml version="1.0" encoding="utf-8"?>
<!-- Generator: Adobe Illustrator 21.0.0, SVG Export Plug-In . SVG Version: 6.00 Build 0)  -->
<svg version="1.1" id="Layer_1" xmlns="http://www.w3.org/2000/svg" xmlns:xlink="http://www.w3.org/1999/xlink" x="0px" y="0px"
	 viewBox="0 0 22.5 38.8" style="enable-background:new 0 0 22.5 38.8;" xml:space="preserve">
<style type="text/css">
	.st0{opacity:0.85;stroke:#000000;stroke-width:1.0573;stroke-miterlimit:10;}
	.st1{fill:#EF661C;}
	.st2{fill:#FFFFFF;}
	.st3{display:none;}
	.st4{display:inline;}
	.st5{fill:#508749;}
	.st6{fill:#E9D15F;}
	.st7{fill:#003B60;}
	.st8{fill:#D35540;}
</style>
<g>
	<path class="st2" d="M20.5,24.6c0.6-0.6,1.7-2.9,2-3.6c0.4-1.3-0.8-2-1.5-3.1c-2-3.3-4.4-5.1-6.8-8c-2.3-2.9-4.7-5.8-7-8.6
		C6.1,0,5.9-0.2,4.4,0.1C2.8,0.4,0,2.9,0,4.5c0,2,1.9,2.3,3.2,3.9c1.2,1.4,2.7,2.5,4.1,3.8c1.8,1.8,3.1,4,3.8,6.4
		c0.2,0.6,0.3,1.3,0.1,2c-0.3,0.9-1.3,2.8-2,3.5c-4.1,4-8.5,5.2-8.2,10.2C1,35.7,1.4,37.1,2.5,38s2.8,1.1,3.8,0.1
		C6.4,38.1,16.2,28.9,20.5,24.6z"/>
</g>
</svg>
