<?xml version="1.0" encoding="utf-8"?>
<!-- Generator: Adobe Illustrator 21.0.0, SVG Export Plug-In . SVG Version: 6.00 Build 0)  -->
<svg version="1.1" id="Layer_1" xmlns="http://www.w3.org/2000/svg" xmlns:xlink="http://www.w3.org/1999/xlink" x="0px" y="0px"
	 viewBox="0 0 28.6 35.1" style="enable-background:new 0 0 28.6 35.1;" xml:space="preserve">
<style type="text/css">
	.st0{opacity:0.85;stroke:#000000;stroke-width:1.0573;stroke-miterlimit:10;}
	.st1{fill:#EF661C;}
	.st2{fill:#FFFFFF;}
	.st3{display:none;}
	.st4{display:inline;}
	.st5{fill:#508749;}
	.st6{fill:#E9D15F;}
	.st7{fill:#003B60;}
	.st8{fill:#D35540;}
</style>
<g>
	<path class="st2" d="M1.1,29.8c-0.3,0.9-0.3,4.6,0.5,5c0.6,0.3,2.3,0.4,3,0.2c5.8-1.7,5-8.3,10.6-10.5c2-0.8,4.3,3.8,4.6,5.9
		c0.4,2.9,0.1,2.7,2.3,3.8c1.9,0.9,3.5,0.2,5.1-1.3c2.3-2.1,1.3-4.9-0.3-7.5c-1.6-2.6-6.5-4.5-7.4-7.4c-0.2-0.6-0.3-1.3-0.1-2
		c0.2-0.7,0.7-1.4,1.2-2c2.1-2.6,6.1-6.1,6.8-9.4c0.3-1.1,0.4-2.4-0.2-3.3C26.7,0.4,25.6,0,24.5,0c-2.2-0.1-4.7,0.9-6,3.6
		c-0.9,2-0.3,3.7-1.8,5.3c-0.6,0.7-2,3.1-3,3c-1.2-0.2-4.1-5.4-4.6-6.5C7.7,2,3.7-1,0.8,1.3C-1.6,3.1,2,10,3.8,12.5s6.5,4.1,5.2,6.9
		C7.2,23.2,2.9,24.5,1.1,29.8z"/>
</g>
</svg>
