<?xml version="1.0" encoding="utf-8"?>
<!-- Generator: Adobe Illustrator 21.0.0, SVG Export Plug-In . SVG Version: 6.00 Build 0)  -->
<svg version="1.1" id="Layer_1" xmlns="http://www.w3.org/2000/svg" xmlns:xlink="http://www.w3.org/1999/xlink" x="0px" y="0px"
	 viewBox="0 0 428 449.3" style="enable-background:new 0 0 428 449.3;" xml:space="preserve">
<style type="text/css">
	.st0{fill:#FFFFFF;}
</style>
<g>
	<g>
		<path class="st0" d="M317,416.9c-11.2,2.5-22.6,3-35.1,1.7c-3.9-0.4-9.7-1.4-14.9-2.7c-6.3-1.5-12.5-3.4-18.6-5.6
			c-11.2-4-21.9-9.2-32.8-15.4c-10.5-5.9-21.1-11.8-31.4-17.9c-17.6-10.4-33.6-26.4-49.4-41c-3.8-3.5-7.6-7-11.1-10.7
			c-4.4-4.7-6.8-7.7-9.9-12c-7.1-9.8-13.6-19.9-21.1-29.4c-14.6-18.7-29.3-38.5-40-60.6c-5.3-11-9.2-22.6-12.8-34.8
			c-3.6-12-7.8-25.8-9.4-37.1c-1.6-11-0.6-21.7,2.7-32.5c3.7-12.1,8-20.7,12.9-32c3.8-8.6,7.7-16.7,12.9-24.5
			c0.4-0.6,0.8-1.1,1.1-1.7c1.7-2.7-2.6,2.9-0.1,0.1c1.5-1.6,2.9-3.3,4.4-4.9c1.6-1.6,3.2-3.1,4.9-4.7c2.8-2.6-2.4,1.6,0.3-0.2
			c2.2-1.4,4.3-3.1,6.3-4.8c1.7-1.4,3.2-3,4.8-4.6c0.8-0.8,1.5-1.5,2.3-2.3c0.3-0.3,2.6-2.2,1.1-1c2.2-1.7,4.7-3.2,7.1-4.6
			c1.4-0.9,2.9-1.6,4.3-2.4c2.2-1.2-0.2-0.3,2.4-1c-0.4,0.1,4.6-1.1,2.7-0.8c-1.7,0.3,3,0,2.8,0c-2.9-0.1,4.9,1.5,2.7,0.6
			c5.7,2.4,7.8,4.7,12.1,9c16.3,16.2,28.8,35,38.7,56.5c1.8,3.9,4.8,9.4,5.3,13.6c0.2,1.9-0.1,2.6-0.8,4.7c-0.8,2.5-1.6,4.1-3,6.9
			c-0.9,1.6-1.8,3.2-2.6,4.9c-0.2,0.4-1.7,2.4-0.2,0.5c1.7-2.1-0.6,0.5-0.8,0.7c-0.7,0.7-1.4,1.4-2,2c-1.7,1.6-3.5,3.1-5.3,4.6
			c-0.7,0.6-1.4,1.1-2.1,1.6c2.5-2-1.1,0.8-1.6,1.2c-7.8,5.8-15.5,11.1-21.9,18.4c-6,6.7-13,14.4-15.2,23.4
			c-4.5,18.9,5.8,40.9,14.7,57.1c9.8,18,21.9,34.8,36.5,49.4c15.1,15.1,32.2,28.9,49.3,41.7c9.6,7.2,19.6,12.1,31.7,13
			c11.5,0.8,24.5-1.9,34.5-7.7c10-5.7,15.9-15.1,23.5-23.3c0.8-0.9,1.7-1.8,2.6-2.6c0.1-0.1,3.8-2.9,1.6-1.4
			c0.8-0.6,1.6-1.1,2.5-1.6c0.1-0.1,4.4-2.2,1.7-1c2.2-1,4.6-1.5,7-2.1c2.8-0.7,1.1-0.3,0.4-0.2c2-0.3,4-0.3,5.9-0.3c1,0,2,0,3,0.1
			c0.1,0,5,0.5,2,0.1c2.5,0.3,5,0.9,7.4,1.6c2.4,0.7,4.9,1.5,7.2,2.4c-2-0.8,0.3,0.1,0.6,0.3c2,1,3.9,2,5.8,3.1
			c10.2,5.9,17.5,12.5,26.5,20.7c4.2,3.8,8.5,7.6,12.7,11.5c1,0.9,2,1.9,3,2.9c0.4,0.4,2.5,3,1.1,1.1c1.9,2.5,3.4,5.2,5.1,7.7
			c1.5,2.3,3.2,4.6,4.4,7.1c-0.8-1.7,0.5,1.4,0.6,1.8c0.2,0.5,0.7,3.9,0.5,1.6c0,0-0.2,5.1,0,2.4c0,0.3-0.7,3.3-0.1,0.5
			c-0.3,0.4-0.5,0.8-0.8,1.2c0.9-1.1,0.7-0.9-0.5,0.5c-1.1,1.1-2.2,2.2-3.3,3.3c-16.2,14.9-32.1,26.8-52.2,37.5
			c-2.2,1.2-4.5,2.4-6.8,3.5c-1.3,0.6-2.7,1.2-4,1.9c-2.7,1.3-0.9,0.4-0.3,0.2C325.9,414.3,321.5,415.8,317,416.9
			c-7.9,1.9-12.6,10.8-10.5,18.5c2.2,8,10.6,12.4,18.5,10.5c22.3-5.4,43.3-18.6,61.6-32c9.8-7.2,19.2-14.8,28.1-23
			c11.4-10.5,16.6-25.2,11.3-40.3c-4.2-12.2-13.1-24.9-22.6-33.5c-9.4-8.4-18.4-17.1-28.4-24.8c-20.7-16.2-46.7-27.5-73.3-20.5
			c-12.6,3.3-22.6,11-30.8,20.9c-3.3,4-6.4,8.1-10.3,11.6c-0.5,0.4-3,2.1-1,0.8c-1.1,0.7-2.3,1.4-3.5,2c-3.6,2,1.6-0.5-0.8,0.3
			c-1.6,0.5-3.2,1-4.8,1.4c-1.4,0.4-2.9,0.7-4.4,0.9c2.5-0.4,0,0-0.5,0c-2.9,0.1-5.8,0.3-8.7-0.1c3.1,0.4-2.6-0.8-3.6-1.2
			c3.2,1.2-1-0.6-1.3-0.8c-1.3-0.7-2.6-1.5-3.8-2.3c-8.8-5.6-16.7-12.7-25.9-20.3c-8.2-6.7-16.2-13.7-23.7-21.2
			c-3.5-3.5-6.8-7-10-10.8c-1.5-1.7-2.9-3.4-4.3-5.2c-2.8-3.4,1.7,2.4-1-1.3c-0.8-1.1-1.6-2.2-2.4-3.3c-6.3-8.9-11.9-18.3-16.9-28
			c-1-1.9-1.8-3.8-2.7-5.7c-1.1-2.5-0.1-0.2,0.1,0.2c-0.5-1.2-0.9-2.4-1.4-3.6c-1.9-5-3.3-10-4.4-15.2c-0.6-2.8-0.1-0.3,0,0.3
			c-0.1-1.2-0.2-2.3-0.3-3.5c0-1.1,0.1-2.2,0.1-3.3c0.1,3.1-0.4,2.2,0,1c0.8-3-2,2.5-0.1,0.3c0.5-0.5,0.8-1.2,1.2-1.8
			c0.4-0.5,0.8-1.1,1.1-1.6c0.4-0.6,0.9-1.2,1.3-1.8c-1.1,1.4-1.1,1.4,0,0c3.4-4,6.7-8,10.6-11.5c0.7-0.6,1.3-1.2,2-1.7
			c-2.5,2-0.3,0.3,0.2,0c1.8-1.2,3.5-2.4,5.2-3.7c8.4-6.1,18-12.6,23.7-21.5c7.8-12.2,13.9-27.6,9.7-42.1
			c-3.5-12.4-10.1-24.8-16.5-36c-6.5-11.4-14.2-22.1-22.5-32.3c-8.2-10-17.5-20.6-29.1-26.7C108.5-2.2,94-1.4,80.2,5.6
			c-5.8,2.9-11.3,6.7-16.3,10.8c-1.9,1.6-3.6,3.3-5.4,5.1c-0.8,0.8-1.5,1.5-2.3,2.3c-0.5,0.5-1,1-1.6,1.4c1-0.7,0.7-0.5-1,0.7
			C45.1,31.8,38,39.6,32.3,48.3c-5.9,9-10,18.4-14.3,28.3c-5.4,12.4-11.4,24.9-14.9,37.9c-7.3,27.3-0.6,53.8,7.2,80.2
			c8,27.2,19.3,52.5,35.2,76c7.7,11.4,16.3,22.2,24.8,33c6.3,8.2,13,18.9,19.8,27.9c14.7,19.4,33.5,35.2,51.9,51
			c9.5,8.2,19,15.8,29.9,22c11.5,6.6,23.1,13.4,34.8,19.6c24.2,12.9,50.3,22.3,77.7,24.6c13.6,1.1,27.3-0.1,40.5-3
			c7.9-1.8,12.5-10.9,10.5-18.5C333.2,419.2,324.9,415.1,317,416.9z"/>
	</g>
</g>
</svg>
