<?xml version="1.0" encoding="utf-8"?>
<!-- Generator: Adobe Illustrator 20.1.0, SVG Export Plug-In . SVG Version: 6.00 Build 0)  -->
<svg version="1.1" preserveAspectRatio="none" id="Layer_1" xmlns="http://www.w3.org/2000/svg" xmlns:xlink="http://www.w3.org/1999/xlink" x="0px" y="0px"
	 viewBox="0 0 1300.7 527.6" style="enable-background:new 0 0 1300.7 527.6;" xml:space="preserve">
<style type="text/css">
	.st0{opacity:0.85;stroke:#000000;stroke-width:1.0573;stroke-miterlimit:10;}
	.st1{fill:#EF661C;}
	.st2{fill:#FFFFFF;}
	.st3{opacity:0.5;}
	.st4{display:none;}
	.st5{display:inline;}
	.st6{fill:#508749;}
	.st7{fill:#D35540;}
	.st8{fill:#003B60;}
	.st9{fill:#E9D15F;}
	.st10{fill:#42B4E6;}
	.st11{fill:none;}
	.st12{fill:#29ABE2;}
</style>
<g>
	<path class="st1" d="M7.3,303.1c1.2,56.6,5.4,113.6-5.5,169.7c-1.7,8.5-4.5,36.6,4.8,42.2c16.2,9.8,13.7,7,22.6,8.1
		c76.8,9.7,147.4,1.1,225.4,0c312.9-4.3,636.5,14.6,948.4-3.5c29-1.7,66.4,16.5,84.2,0.6c14.6-13,11.2-52.4,10-68.8
		c-10-135.9,13.7-258-1.8-417.8c-0.7-7.4-0.3-15.4-6.4-21.6c-9.7-9.7-29.4-10.9-46.4-11c-40.9-0.4-81.9-1.5-122.8-0.4
		c-356.9,9.8-697-5.9-1066.9,2c-4.9,0.1-26.2-3.2-33.6,7.9c-12.5,18.7,2.3,54.2,1.2,61C20.4,71.3,5.3,208.3,7.3,303.1z"/>
</g>
</svg>
