<?xml version="1.0" encoding="utf-8"?>
<!-- Generator: Adobe Illustrator 21.0.0, SVG Export Plug-In . SVG Version: 6.00 Build 0)  -->
<svg version="1.1" id="Layer_1" xmlns="http://www.w3.org/2000/svg" xmlns:xlink="http://www.w3.org/1999/xlink" x="0px" y="0px"
	 viewBox="0 0 601.5 497.1" style="enable-background:new 0 0 601.5 497.1;" xml:space="preserve">
<g>
	<g>
		<g>
			<path d="M136.9,282c-6.5-2.8-13.1-5.5-19.7-8.2c-1.3-0.5-2.5-1-3.8-1.6c3.6,1.5-0.2-0.1-1-0.4c-2.7-1.2-5.3-2.4-7.9-3.7
				c-5.2-2.6-10.1-5.6-14.8-9.1c2.9,2.1-1.3-1.1-1.8-1.6c-1.2-1-2.3-2.1-3.4-3.1c-2.6-2.5-5.1-5.1-7.4-7.9c-0.1-0.1-3.6-4.6-1.5-1.8
				c-0.7-1-1.5-2-2.2-3.1c-1.7-2.5-3.2-5-4.6-7.6c-1.6-2.8-3-5.8-4.4-8.7c-2.2-4.6,1.1,3-0.8-1.8c-0.6-1.5-1.2-3-1.7-4.5
				c-2.5-6.8-4.4-13.7-5.8-20.8c-0.3-1.6-0.6-3.3-0.9-4.9c0.5,3.2-0.2-2-0.2-2.2c-0.3-3.8-0.4-7.6-0.3-11.4
				c-8.4,4.8-16.8,9.6-25.1,14.4c16.5,10.8,38.7,16.5,58.3,16.2c6.7-0.1,12.7-4.1,15.3-10.3c2.8-6.6,0.9-12.9-3.5-18.3
				c-8.9-10.9-19-20.8-28.3-31.5c-1.2-1.5-1.2-1.5-0.1,0c-0.6-0.8-1.2-1.5-1.7-2.3c-0.8-1.2-1.7-2.4-2.4-3.6c-1.9-2.9-3.4-5.8-5-8.9
				c-0.8-1.8-0.8-1.8-0.1-0.1c-0.4-0.9-0.7-1.9-1-2.8c-0.5-1.5-0.9-3-1.3-4.5c-0.9-3.3-1.5-6.6-2-9.9c-0.7-4.4,0.1,1.8-0.2-1.7
				c-0.2-1.7-0.3-3.3-0.5-5c-0.3-3.4-0.4-6.9-0.5-10.3c-0.1-7.1,0.2-14.2,1-21.2c0.1-0.8,0.2-1.5,0.3-2.3c-0.3,1.9-0.3,1.9,0,0
				c0.3-1.7,0.6-3.4,0.9-5.2c0.6-3.3,1.4-6.7,2.3-9.9c0.9-3.2,2-6.2,3.1-9.3c0.5-1.1,0.3-0.8-0.4,0.9c0.4-0.8,0.7-1.6,1.1-2.4
				c0.7-1.5,1.6-3,2.4-4.5c-8.7,1.1-17.5,2.3-26.2,3.4c26.3,27.3,54.3,52.4,86,73.2c32.3,21.1,66.8,37,104.4,46.4
				c22.6,5.7,46,9.2,69.3,10c8.7,0.3,17.1-7.9,16.7-16.7c-0.4-9.3-7.3-16.4-16.7-16.7c-4.6-0.2-9.3-0.4-13.9-0.8
				c-2.2-0.2-4.4-0.4-6.6-0.6c-1.1-0.1-2.2-0.2-3.3-0.4c-1-0.1-3.8-0.5-1.4-0.2c-9.9-1.3-19.7-3.2-29.3-5.5
				c-9.4-2.2-18.7-4.7-27.9-7.7c-4.5-1.4-9-3-13.4-4.6c-2.1-0.8-4.1-1.5-6.1-2.3c-1-0.4-2-0.8-3-1.2c-3.3-1.3,1.6,0.7-1.9-0.8
				c-15.8-6.9-30.5-15.4-45-24.7c-6.7-4.3-13.4-8.7-19.8-13.4c-3-2.2-6-4.4-9-6.6c-2.5-1.9-0.5-0.4,0,0c-0.9-0.7-1.9-1.5-2.8-2.2
				c-1.7-1.3-3.4-2.7-5-4.1C95.4,57.9,79.8,42.6,64.7,26.9c-7.4-7.7-21-5.8-26.2,3.4c-16.1,28.1-17.8,64-13.1,95.4
				c2.3,15.7,8.4,29.9,18,42.5c10,13.1,22.3,24.3,32.7,37.1c3.9-9.5,7.9-19,11.8-28.5c-1.8,0-3.5,0-5.3-0.1
				c-1.2-0.1-2.3-0.2-3.5-0.3c-0.4,0-3.4-0.5-1.4-0.2c2,0.3-1.1-0.2-1.5-0.3c-1-0.2-2-0.4-3-0.6c-2.3-0.5-4.5-1-6.8-1.6
				c-3.9-1.1-7.8-2.4-11.6-3.9c1.5,0.6,1.3,0.6,0-0.1c-1.1-0.5-2.1-1-3.2-1.6c-1.8-0.9-3.5-2-5.1-3c-11-7.2-24.8,2.3-25.1,14.4
				c-0.8,30.9,10.6,63.7,29.9,87.7c9.2,11.4,20.6,21.1,33.5,28.1c6.4,3.5,13.2,6.3,19.9,9.1c3,1.2,5.9,2.4,8.9,3.6
				c1.3,0.5,2.6,1.1,3.9,1.6c1.8,0.7,1.8,0.7,0,0c0.9,0.4,1.8,0.8,2.7,1.2c8,3.5,18.3,2.6,22.9-6C146.8,297.6,145.5,285.7,136.9,282
				L136.9,282z"/>
		</g>
	</g>
	<g>
		<g>
			<path d="M311.3,159.1c-0.9-12.3-1-24.8,0.4-37.1c0.1-0.7,0.8-5.3,0.1-1.1c0.2-1.4,0.4-2.7,0.7-4c0.5-2.6,1-5.3,1.6-7.9
				c1.3-5.5,2.9-10.9,5-16.1c0.3-0.7,2.1-4.6,0.3-0.7c0.5-1.1,1-2.3,1.6-3.4c1.1-2.3,2.3-4.5,3.5-6.7c1-1.8,2.1-3.6,3.3-5.3
				c0.7-1,1.4-2.1,2.1-3.1c0.5-0.7,1-1.4,1.5-2c-1.4,1.7-1.5,1.9-0.3,0.4c3.2-3.9,6.6-7.6,10.3-11.1c1.9-1.8,3.9-3.4,5.9-5.1
				c3.4-2.8-2.8,1.9,0.8-0.6c1.5-1,2.9-2.1,4.4-3.1c5-3.3,10.1-6.3,15.5-8.8c1.4-0.7,2.9-1.4,4.3-2c-3.2,1.4,1.6-0.6,1.9-0.7
				c3.4-1.3,6.9-2.4,10.4-3.4c2.5-0.7,5-1.3,7.5-1.8c1.5-0.3,3-0.6,4.5-0.9c0.4-0.1,5.5-0.7,1.6-0.3c6.6-0.8,13.2-1,19.8-0.7
				c3,0.1,6.1,0.4,9.1,0.8c-3.9-0.5,1.1,0.2,1.6,0.3c1.5,0.3,3,0.6,4.5,0.9c6.5,1.4,12.8,3.4,18.9,5.9c-3.3-1.4,1.4,0.7,1.6,0.8
				c1.4,0.7,2.8,1.4,4.2,2.1c2.8,1.4,5.5,3,8.1,4.7c2.2,1.4,4.4,2.9,6.5,4.4c4.2,2.9-2.3-2,1.7,1.3c1.7,1.4,3.3,2.7,5,4.1
				c8.9,7.1,17.7,9.3,28.9,7.5c7.4-1.2,14.1-3.9,20.9-6.8c6.5-2.7,15-6.3,22.8-9.5c9-3.8,18.1-7.5,27.1-11.4
				c-8.2-6.3-16.4-12.6-24.5-18.9c-1.4,3.6,0.6-1.3-0.8,1.9c-0.7,1.5-1.3,3-2,4.4c-1.4,2.9-2.9,5.9-4.4,8.7
				c-3.1,5.8-6.6,11.3-10.4,16.7c-0.3,0.5-3.1,4.2-1.3,1.9c-1,1.3-2,2.6-3.1,3.8c-2.1,2.5-4.3,4.9-6.5,7.2c-2.1,2.1-4.2,4.2-6.4,6.1
				c-1.2,1.1-2.4,2.1-3.7,3.1c-0.9,0.7-0.8,0.7,0.2-0.2c-0.9,0.6-1.7,1.3-2.6,1.9c-5.9,4.2-10.1,11.4-7.7,18.9
				c2.2,6.9,8.6,12.5,16.1,12.3c25.6-0.7,48.7-10,71.8-20.2c-7.6-7.6-15.2-15.2-22.9-22.9c-3.1,5.6-6.4,11-10.1,16.2
				c-0.3,0.4-3,3.9-1.2,1.7c-1,1.2-2,2.5-3,3.7c-2.2,2.6-4.5,5.2-7,7.7c-4.4,4.6-9.2,8.8-14.2,12.8c-0.9,0.7-0.8,0.7,0.2-0.2
				c-0.6,0.5-1.3,0.9-1.9,1.4c-1.3,0.9-2.6,1.8-3.9,2.7c-2.9,1.9-5.8,3.7-8.8,5.5c-4.8,2.8-8.7,8.7-8.3,14.4
				c1.5,20.6-0.3,41.6-2.9,62c-0.5,3.9,0.4-2.7,0,0.3c-0.2,1.1-0.3,2.2-0.5,3.2c-0.4,2.6-0.8,5.2-1.2,7.8c-0.8,5-1.8,10.1-2.8,15.1
				c-2.3,11.1-5,22-8.3,32.8c-3.5,11.7-7.6,23.3-12.4,34.6c1.1-2.7-0.1,0.3-0.6,1.3c-0.6,1.3-1.2,2.7-1.8,4
				c-1.4,3.1-2.9,6.2-4.4,9.3c-2.9,5.8-5.9,11.5-9.2,17.1c-3.4,6-7.1,11.9-11,17.6c-1.7,2.6-3.5,5.2-5.4,7.7c-1.1,1.5-2.2,3-3.3,4.4
				c-0.1,0.1-1.6,2.1-0.6,0.8c0.9-1.2-1,1.2-1.1,1.4c-8.2,10.3-17.2,20-26.9,29c-4.9,4.5-9.9,8.8-15,13c-1.4,1.2-2.8,2.3-4.3,3.4
				c-1.5,1.2,0,0,0.3-0.2c-0.6,0.5-1.3,1-1.9,1.4c-3,2.2-6,4.4-9,6.6c-11.5,8.2-23.4,15.7-35.7,22.5c-6.4,3.6-12.9,7-19.5,10.2
				c-2.9,1.4-5.8,2.8-8.8,4.1c-1.7,0.8-3.4,1.5-5.1,2.3c-0.7,0.3-1.5,0.6-2.2,1c1.6-0.7,0.6-0.3-0.4,0.2c-12.5,5.1-25.4,9.6-38.5,13
				c-29.4,7.6-59.3,9.2-90.5,8.3c-7.6-0.2-15.1-0.7-22.7-1.3c-3.6-0.3-7.3-0.7-10.9-1.1c-1.6-0.2-3.3-0.4-4.9-0.6
				c-0.8-0.1-1.6-0.2-2.4-0.3c-2.8-0.3,2.4,0.3-0.4,0c-13.1-1.9-26-4.2-38.9-7.3c-11.4-2.7-22.7-5.8-33.7-10.1
				c-1.2-0.5-2.4-1-3.7-1.5c-1.8-0.7,0.8,0.3,0.9,0.4c-0.8-0.4-1.6-0.7-2.4-1.1c-2.7-1.2-5.4-2.5-8-3.9c-6.1-3.1-12-6.4-17.8-10
				c-6.7-4.1-13.3-8.4-19.8-12.7c-2.8,10.4-5.6,20.8-8.4,31.1c31.2,3.2,63,0.7,93.2-8c30.2-8.8,58.4-23.6,83.8-42.1
				c5.8-4.3,10.1-11.4,7.7-18.9c-2.5-7.6-8.4-11.4-16.1-12.3c-4-0.5,2.5,0.5-1.2-0.2c-1.4-0.2-2.8-0.5-4.2-0.7
				c-2.8-0.5-5.6-1.1-8.4-1.8c-5.6-1.4-11.1-3-16.5-5c-1.3-0.5-2.7-1-4-1.6c3.4,1.3-0.6-0.2-1.3-0.6c-2.6-1.2-5.2-2.4-7.7-3.8
				c-5.2-2.8-10.3-5.9-15.1-9.3c-0.4-0.3-3.9-2.9-2.3-1.6c1.6,1.3-1.8-1.5-2.1-1.8c-2.1-1.8-4.2-3.7-6.2-5.6c-2-1.9-3.9-4-5.7-6
				c-0.9-1-1.8-2.1-2.6-3.2c-0.7-0.9-0.6-0.7,0.5,0.7c-0.4-0.5-0.8-1.1-1.2-1.7c-3.2-4.5-6-9.2-8.3-14.2c-0.3-0.6-0.6-1.2-0.9-1.9
				c0.7,1.7,0.8,1.9,0.4,0.8c-0.4-1.3-1-2.6-1.4-3.9c-1-2.9-1.8-5.8-2.4-8.8c-6.9,6.9-13.7,13.7-20.6,20.6
				c20.8,3.6,41.8,2.3,62.1-3.2c8.4-2.3,14.4-12,11.7-20.6c-2.8-8.7-11.5-14.1-20.6-11.7c-3.9,1-7.7,1.9-11.7,2.6
				c-1.1,0.2-2.3,0.4-3.4,0.6c1.5-0.2,1.3-0.1-0.8,0.1c-2,0.2-4.1,0.4-6.1,0.6c-4.1,0.3-8.2,0.4-12.3,0.2c-2-0.1-4-0.2-6-0.4
				c-1.1-0.1-2.3-0.2-3.4-0.4c1.6,0.2,1.5,0.1-0.6-0.2c-12.6-2.2-23.6,7.3-20.6,20.6c12.8,56.1,69.3,88.3,122.8,94.6
				c-2.8-10.4-5.6-20.8-8.4-31.1c-12.2,8.9-24.9,16.9-38.3,23.8c-3.4,1.7-6.8,3.4-10.2,4.9c-1.5,0.7-2.9,1.3-4.4,2
				c2.8-1.2-2.1,0.9-2.7,1.1c-6.7,2.6-13.4,5-20.3,7c-6.6,1.9-13.3,3.5-20.1,4.8c-3.7,0.7-7.3,1.3-11,1.8c3.4-0.5-1.2,0.1-1.9,0.2
				c-2.1,0.2-4.3,0.4-6.4,0.6c-14.9,1.2-29.9,0.9-44.8-0.7c-6.9-0.7-14.6,5.7-16.1,12.3c-1.7,7.6,1.3,14.6,7.7,18.9
				c23.5,15.8,47.8,29.6,75.1,37.6c26.7,7.8,54.4,12.4,82,14.9c34.5,3,69.2,1.7,103.4-3.8c28.2-4.5,55.4-14.8,81.1-27.1
				c52.7-25.3,100.8-62,134.3-110.2c29.1-42,47.2-91.6,55.7-141.9c3.1-18.4,5.2-36.9,6-55.6c0.4-8.7,0.9-17.8,0-26.5
				c0-0.4,0-0.8-0.1-1.2c-2.8,4.8-5.5,9.6-8.3,14.4c25.9-15,47.5-37.1,61.9-63.4c3.4-6.3,2.9-15.2-2.6-20.2
				c-5.9-5.4-13.1-5.7-20.2-2.6c-8.8,3.9-16.6,7.2-27,10.5c-4.8,1.5-9.7,2.8-14.6,3.8c-1.2,0.2-2.3,0.4-3.5,0.6
				c-0.7,0.1-2.7,0.3-0.9,0.1c-3,0.3-6,0.5-9,0.6c2.8,10.4,5.6,20.8,8.4,31.1c26.6-18.8,44.3-45.6,56.4-75.5
				c2.5-6.1-1.3-13.9-6-17.6c-5.8-4.5-12.2-4-18.6-1.3c-6.3,2.7-12.7,5.3-20,8.4c-8.5,3.5-17,7.1-25.4,10.6
				c-0.9,0.4-1.8,0.7-2.6,1.1c-0.1,0.1-3,1.2-1.1,0.5c1.6-0.6-1.6,0.6-2.1,0.8c-2.9,1-5.8,1.8-8.7,2.5c-0.4,0.1-2.7,0.4-0.5,0.1
				c2.3-0.3-0.3-0.1-0.4,0c-0.7,0.4-4.1-0.9,1,0.4c-0.9-0.2-0.9-0.6-0.5,0c0.7,1-0.4-0.3-0.8-0.6c0.3,0.2,1.7,1.3,0.2,0.2
				c-1.5-1.1-2.9-2.4-4.4-3.6c-23-18.3-50.6-29-80.1-30c-51-1.7-104.4,27.3-125.6,74.7c-11.9,26.5-14.9,55.6-12.8,84.4
				c0.6,8.7,7.2,17.1,16.7,16.7C303.1,175.5,312,168.5,311.3,159.1L311.3,159.1z"/>
		</g>
	</g>
</g>
</svg>
